<svg width="73" height="19" viewBox="0 0 73 19" fill="none" xmlns="http://www.w3.org/2000/svg">
<path d="M0.88 18V1.2H3.064V16.68H11.728V18H0.88ZM13.6375 9.6C13.6375 10.496 13.8055 11.456 14.1415 12.48C14.4935 13.488 15.0375 14.424 15.7735 15.288C16.5095 16.152 17.4455 16.872 18.5815 17.448C19.7175 18.008 21.0775 18.288 22.6615 18.288C23.7335 18.288 24.7015 18.16 25.5655 17.904C26.4455 17.632 27.2295 17.272 27.9175 16.824C28.6215 16.376 29.2295 15.864 29.7415 15.288C30.2535 14.696 30.6695 14.08 30.9895 13.44C31.3255 12.784 31.5735 12.128 31.7335 11.472C31.9095 10.816 31.9975 10.192 31.9975 9.6C31.9975 8.704 31.8135 7.752 31.4455 6.744C31.0775 5.72 30.5095 4.776 29.7415 3.912C28.9735 3.048 27.9975 2.336 26.8135 1.776C25.6455 1.2 24.2615 0.912 22.6615 0.912C21.0775 0.912 19.7175 1.192 18.5815 1.752C17.4455 2.312 16.5095 3.024 15.7735 3.888C15.0375 4.736 14.4935 5.672 14.1415 6.696C13.8055 7.72 13.6375 8.688 13.6375 9.6ZM15.9895 9.6C15.9895 8.48 16.1575 7.456 16.4935 6.528C16.8455 5.584 17.3175 4.776 17.9095 4.104C18.5175 3.432 19.2295 2.912 20.0455 2.544C20.8615 2.16 21.7495 1.968 22.7095 1.968C23.6535 1.968 24.5415 2.16 25.3735 2.544C26.2215 2.912 26.9575 3.432 27.5815 4.104C28.2215 4.776 28.7255 5.584 29.0935 6.528C29.4615 7.456 29.6455 8.48 29.6455 9.6C29.6455 10.72 29.4615 11.752 29.0935 12.696C28.7255 13.624 28.2215 14.424 27.5815 15.096C26.9575 15.768 26.2215 16.296 25.3735 16.68C24.5415 17.048 23.6535 17.232 22.7095 17.232C21.7495 17.232 20.8615 17.048 20.0455 16.68C19.2295 16.296 18.5175 15.768 17.9095 15.096C17.3175 14.424 16.8455 13.624 16.4935 12.696C16.1575 11.752 15.9895 10.72 15.9895 9.6ZM51.3711 10.512H46.6191V11.496H49.3071V15.84C48.5871 16.304 47.8511 16.648 47.0991 16.872C46.3471 17.096 45.4911 17.208 44.5311 17.208C43.2671 17.208 42.1631 17.016 41.2191 16.632C40.2751 16.248 39.4911 15.72 38.8671 15.048C38.2431 14.36 37.7711 13.552 37.4511 12.624C37.1471 11.68 36.9951 10.648 36.9951 9.528C36.9951 8.424 37.1391 7.408 37.4271 6.48C37.7311 5.552 38.1791 4.752 38.7711 4.08C39.3631 3.408 40.0831 2.888 40.9311 2.52C41.7951 2.152 42.7951 1.968 43.9311 1.968C44.6831 1.968 45.3871 2.048 46.0431 2.208C46.6991 2.368 47.2831 2.576 47.7951 2.832C48.3071 3.088 48.7231 3.384 49.0431 3.72C49.3791 4.04 49.5951 4.368 49.6911 4.704H51.4191C51.2751 4.352 51.0271 3.96 50.6751 3.528C50.3391 3.08 49.8751 2.664 49.2831 2.28C48.6911 1.896 47.9551 1.576 47.0751 1.32C46.2111 1.048 45.1871 0.912 44.0031 0.912C42.6431 0.912 41.3871 1.104 40.2351 1.488C39.0991 1.872 38.1151 2.424 37.2831 3.144C36.4511 3.864 35.8031 4.752 35.3391 5.808C34.8751 6.848 34.6431 8.032 34.6431 9.36C34.6431 10.496 34.8191 11.6 35.1711 12.672C35.5391 13.728 36.0911 14.68 36.8271 15.528C37.5791 16.36 38.5311 17.032 39.6831 17.544C40.8351 18.04 42.2111 18.288 43.8111 18.288C45.0111 18.288 46.0751 18.16 47.0031 17.904C47.9311 17.632 48.6991 17.336 49.3071 17.016V18H51.3711V10.512ZM54.0203 9.6C54.0203 10.496 54.1883 11.456 54.5243 12.48C54.8763 13.488 55.4203 14.424 56.1563 15.288C56.8923 16.152 57.8283 16.872 58.9643 17.448C60.1003 18.008 61.4603 18.288 63.0443 18.288C64.1163 18.288 65.0843 18.16 65.9483 17.904C66.8283 17.632 67.6123 17.272 68.3003 16.824C69.0043 16.376 69.6123 15.864 70.1243 15.288C70.6363 14.696 71.0523 14.08 71.3723 13.44C71.7083 12.784 71.9563 12.128 72.1163 11.472C72.2923 10.816 72.3803 10.192 72.3803 9.6C72.3803 8.704 72.1963 7.752 71.8283 6.744C71.4603 5.72 70.8923 4.776 70.1243 3.912C69.3563 3.048 68.3803 2.336 67.1963 1.776C66.0283 1.2 64.6443 0.912 63.0443 0.912C61.4603 0.912 60.1003 1.192 58.9643 1.752C57.8283 2.312 56.8923 3.024 56.1563 3.888C55.4203 4.736 54.8763 5.672 54.5243 6.696C54.1883 7.72 54.0203 8.688 54.0203 9.6ZM56.3723 9.6C56.3723 8.48 56.5403 7.456 56.8763 6.528C57.2283 5.584 57.7003 4.776 58.2923 4.104C58.9003 3.432 59.6123 2.912 60.4283 2.544C61.2443 2.16 62.1323 1.968 63.0923 1.968C64.0363 1.968 64.9243 2.16 65.7563 2.544C66.6043 2.912 67.3403 3.432 67.9643 4.104C68.6043 4.776 69.1083 5.584 69.4763 6.528C69.8443 7.456 70.0283 8.48 70.0283 9.6C70.0283 10.72 69.8443 11.752 69.4763 12.696C69.1083 13.624 68.6043 14.424 67.9643 15.096C67.3403 15.768 66.6043 16.296 65.7563 16.68C64.9243 17.048 64.0363 17.232 63.0923 17.232C62.1323 17.232 61.2443 17.048 60.4283 16.68C59.6123 16.296 58.9003 15.768 58.2923 15.096C57.7003 14.424 57.2283 13.624 56.8763 12.696C56.5403 11.752 56.3723 10.72 56.3723 9.6Z" fill="black"/>
</svg>
